<svg xmlns="http://www.w3.org/2000/svg" width="43" height="21" viewBox="0 0 43 21" fill="none">
<rect x="0.25" y="0.5" width="42.75" height="20.25" rx="3.75" fill="white"/>
<g clip-path="url(#clip0_1066_2143)">
<path d="M12.8238 6.4504C12.4986 6.8304 11.9783 7.13011 11.458 7.0873C11.3929 6.5735 11.6477 6.02759 11.9457 5.69041C12.2709 5.29971 12.84 5.02141 13.3007 5C13.3549 5.5352 13.1435 6.05971 12.8238 6.4504ZM13.2953 7.18899C12.5419 7.14617 11.897 7.6118 11.5393 7.6118C11.1761 7.6118 10.6287 7.21039 10.0325 7.2211C9.25747 7.2318 8.53662 7.66532 8.14096 8.35573C7.32797 9.73656 7.92958 11.781 8.71547 12.905C9.10029 13.4616 9.56098 14.0717 10.168 14.0503C10.7425 14.0289 10.9702 13.681 11.6639 13.681C12.3631 13.681 12.5636 14.0503 13.1706 14.0396C13.7994 14.0289 14.195 13.483 14.5798 12.9264C15.0188 12.2948 15.1977 11.6794 15.2085 11.6472C15.1977 11.6365 13.9945 11.1816 13.9836 9.81149C13.9728 8.66615 14.9321 8.12024 14.9755 8.08813C14.4335 7.29603 13.588 7.21039 13.2953 7.18899ZM17.6475 5.63689V13.9807H18.9591V11.1281H20.7748C22.4333 11.1281 23.5986 10.0042 23.5986 8.37714C23.5986 6.75012 22.455 5.63689 20.8182 5.63689H17.6475ZM18.9591 6.72871H20.4713C21.6095 6.72871 22.2599 7.32814 22.2599 8.38249C22.2599 9.43685 21.6095 10.0416 20.4659 10.0416H18.9591V6.72871ZM25.9942 14.045C26.818 14.045 27.5822 13.6328 27.9291 12.9799H27.9562V13.9807H29.1703V9.82754C29.1703 8.62333 28.1947 7.84729 26.6934 7.84729C25.3004 7.84729 24.2706 8.63404 24.2327 9.71515H25.4143C25.5118 9.20136 25.9942 8.86418 26.6554 8.86418C27.4576 8.86418 27.9074 9.23347 27.9074 9.91318V10.3735L26.2706 10.4698C24.7476 10.5608 23.9238 11.1763 23.9238 12.2467C23.9238 13.3278 24.7747 14.045 25.9942 14.045ZM26.3465 13.0548C25.6473 13.0548 25.2029 12.723 25.2029 12.2146C25.2029 11.6901 25.631 11.385 26.4495 11.3368L27.9074 11.2458V11.7168C27.9074 12.4982 27.2353 13.0548 26.3465 13.0548ZM30.7908 16.25C32.0699 16.25 32.6715 15.7683 33.1973 14.3072L35.5007 7.92757H34.1674L32.6227 12.8568H32.5956L31.051 7.92757H29.6797L31.9019 14.0021L31.7827 14.3714C31.5821 14.9976 31.2569 15.2385 30.677 15.2385C30.574 15.2385 30.3735 15.2278 30.2922 15.2171V16.2179C30.3681 16.2393 30.6933 16.25 30.7908 16.25Z" fill="black"/>
</g>
<defs>
<clipPath id="clip0_1066_2143">
<rect width="27.75" height="11.25" fill="white" transform="translate(7.75 5)"/>
</clipPath>
</defs>
</svg>