<svg xmlns="http://www.w3.org/2000/svg" width="30" height="30" viewBox="0 0 30 30" fill="none">
  <path d="M25.2623 10.2623C25.2623 4.59457 20.6678 0 15.0001 0C9.3324 0 4.73783 4.59457 4.73783 10.2623C3.27261 10.4447 1.88721 11.4025 1.88721 13.626V18.9852C1.88721 21.4937 3.64319 22.4059 5.30796 22.4059H6.96132C7.27617 22.4059 7.53145 22.1507 7.53145 21.8358V10.7982C7.53145 10.4833 7.27617 10.2281 6.96132 10.2281H5.87809C5.87809 5.19014 9.96218 1.10604 15.0001 1.10604C20.038 1.10604 24.1221 5.19014 24.1221 10.2281H23.0389C22.724 10.2281 22.4687 10.4833 22.4687 10.7982V21.8187C22.4687 22.1336 22.724 22.3888 23.0389 22.3888H24.1221C23.9625 26.3056 22.081 27.2235 18.3239 27.3888V27.0068C18.3239 26.3771 17.8134 25.8666 17.1837 25.8666H13.5976C12.9678 25.8666 12.4573 26.3771 12.4573 27.0068V28.8598C12.4573 29.4895 12.9678 30 13.5976 30H17.1951C17.8248 30 18.3353 29.4895 18.3353 28.8598V28.5291C21.9499 28.3637 25.0742 27.6169 25.2623 22.3546C26.7276 22.1722 28.113 21.2144 28.113 18.9909V13.6317C28.113 11.3968 26.7333 10.4447 25.2623 10.2623ZM6.3912 11.3284V21.2486H5.27945C4.43567 21.2486 2.99895 20.9521 2.99895 18.9681V13.6089C2.99895 11.642 4.41856 11.3284 5.27945 11.3284H6.3912ZM17.1951 27.9989V28.8655H13.5976V27.0125H17.1951V27.9989ZM26.9727 18.9852C26.9727 20.9521 25.5531 21.2657 24.6922 21.2657H23.609V11.3683H24.7207C25.5645 11.3683 27.0012 11.6648 27.0012 13.6488L26.9727 18.9852Z" fill="#303030"/>
</svg>