<svg xmlns="http://www.w3.org/2000/svg" width="15" height="14" viewBox="0 0 15 14" fill="none">
  <circle cx="7.5" cy="7" r="6.375" fill="#FCFCFC" stroke="#AE0000" stroke-width="0.75"/>
  <path d="M6.988 8.18565C6.988 7.94937 7.02192 7.74684 7.08977 7.57806C7.16284 7.40928 7.25157 7.2602 7.35595 7.1308C7.46555 7.00141 7.58038 6.88045 7.70042 6.76793C7.82568 6.65542 7.94311 6.5429 8.05271 6.43038C8.16232 6.31224 8.25104 6.18565 8.31889 6.05063C8.38674 5.90999 8.42067 5.74684 8.42067 5.56118C8.42067 5.25738 8.31106 5.00985 8.09186 4.81857C7.87265 4.62729 7.56211 4.53165 7.16023 4.53165C6.8262 4.53165 6.53653 4.59072 6.29123 4.70886C6.04593 4.82138 5.83716 4.99015 5.66493 5.21519L5.25 4.87764C5.45877 4.59634 5.72756 4.37975 6.05637 4.22785C6.38518 4.07595 6.76618 4 7.19937 4C7.56472 4 7.88048 4.05907 8.14666 4.17721C8.41806 4.29536 8.62683 4.46413 8.77296 4.68354C8.92432 4.90295 9 5.16456 9 5.46835C9 5.71027 8.96347 5.91842 8.8904 6.09283C8.82255 6.2616 8.73382 6.4135 8.62422 6.54852C8.51983 6.67792 8.40501 6.80169 8.27975 6.91983C8.15971 7.03235 8.04489 7.14768 7.93528 7.26582C7.82568 7.38397 7.73695 7.51617 7.6691 7.66245C7.60125 7.80872 7.56733 7.98312 7.56733 8.18565H6.988ZM7.27766 10C7.16806 10 7.0715 9.95781 6.988 9.87342C6.90971 9.7834 6.87056 9.67932 6.87056 9.56118C6.87056 9.43741 6.90971 9.33615 6.988 9.25738C7.0715 9.173 7.16806 9.1308 7.27766 9.1308C7.3977 9.1308 7.49687 9.173 7.57516 9.25738C7.65344 9.33615 7.69259 9.43741 7.69259 9.56118C7.69259 9.67932 7.65344 9.7834 7.57516 9.87342C7.49687 9.95781 7.3977 10 7.27766 10Z" fill="#AE0000"/>
</svg>