<svg xmlns="http://www.w3.org/2000/svg" width="142" height="34" viewBox="0 0 142 34" fill="none">
<path d="M40.7181 23.2049C41.0133 23.5141 41.0273 23.8093 40.7322 24.1045C40.5213 24.3154 40.2542 24.5684 39.9309 24.8354L41.3506 26.3957C41.7301 26.8033 41.5615 27.1688 40.9992 27.1688H39.6077C39.2844 27.1688 39.0313 27.0563 38.8346 26.8314L38.1458 26.1005C37.8506 26.3676 37.4852 26.6627 37.0213 26.9158C36.5575 27.1688 35.953 27.3655 35.1518 27.3655C34.3787 27.3655 33.437 27.2109 32.692 26.7611C31.947 26.3254 31.3848 25.6226 31.3848 24.5403C31.3848 23.8796 31.7362 23.3033 32.2422 22.7973C32.7342 22.3053 33.3808 21.8836 33.9992 21.5603C33.704 21.1808 33.3808 20.8154 33.1559 20.4358C32.9169 20.0563 32.7623 19.6768 32.7623 19.2692C32.7623 17.6386 33.9149 16.5423 36.0936 16.5423C37.1197 16.5423 37.9069 16.8937 38.4269 17.4138C38.933 17.9338 39.186 18.6085 39.186 19.2692C39.186 20.0563 38.7221 20.7029 38.2301 21.1527C37.949 21.4198 37.6398 21.6587 37.2884 21.8696L38.5253 23.2752C38.6799 23.1627 38.8346 23.0362 39.0032 22.8957C39.0876 22.8254 39.186 22.7551 39.2844 22.6708C39.6077 22.3896 39.9028 22.3896 40.184 22.6708L40.7181 23.2049ZM35.939 20.5342C36.1639 20.4077 36.445 20.225 36.6418 20.0001C36.8386 19.7892 36.9791 19.5503 36.9791 19.2692C36.9791 18.988 36.9089 18.7069 36.7542 18.5101C36.5856 18.3133 36.3466 18.1868 35.9671 18.229C35.3065 18.2852 35.0534 18.6507 35.0534 19.2129C35.0534 19.4378 35.2081 19.7049 35.3908 19.9298C35.4892 20.0563 35.5876 20.1688 35.686 20.2672L35.939 20.5342ZM35.194 25.2149C35.6297 25.2149 35.9952 25.0463 36.2763 24.8776C36.445 24.7792 36.5996 24.6527 36.7261 24.5262L35.2502 22.966C34.7301 23.2049 34.3506 23.486 34.0695 23.8234C33.9289 23.9921 33.8587 24.1748 33.8587 24.3575C33.8587 24.737 34.0414 24.9479 34.3225 25.0603C34.5896 25.1868 34.9129 25.2149 35.194 25.2149ZM44.2603 27.1688C43.8386 27.1688 43.6277 26.9579 43.6277 26.5362V17.3997C43.6277 16.978 43.8386 16.7672 44.2603 16.7672H48.1679C49.0534 16.7672 49.8125 17.0342 50.4169 17.5543C50.6418 17.7652 50.9089 18.0041 51.1056 18.3696C51.3024 18.735 51.443 19.2129 51.443 19.8455V19.8595C51.443 20.2953 51.3024 20.7029 51.1197 21.0262C50.937 21.3635 50.684 21.6025 50.4731 21.6728C50.6558 21.715 51.0213 21.8977 51.3586 22.2772C51.696 22.6567 51.9771 23.1909 52.0333 23.8796C52.0474 24.2732 52.0052 24.7651 51.8084 25.2571C51.6117 25.7491 51.2743 26.227 50.8105 26.5784C50.3466 26.9298 49.7141 27.1688 48.9129 27.1688H44.2603ZM46.1579 19.1286V20.8716H48.0273C48.2382 20.8716 48.4771 20.8013 48.6599 20.6607C48.8285 20.5202 48.9691 20.3234 48.9691 20.0423C48.9691 19.5784 48.7301 19.1286 48.1679 19.1286H46.1579ZM46.1579 23.0222V24.7651H48.4631C48.9691 24.7651 49.3767 24.4981 49.3767 23.8937C49.3767 23.2892 48.9972 23.0222 48.3787 23.0222H46.1579Z" fill="white"/>
<path d="M6.30106 11.4779C6.30106 9.74329 7.97803 8.33709 10.0467 8.33709H29.1259C31.1945 8.33709 32.8715 9.74329 32.8715 11.4779L35.271 28.1391C35.271 29.8738 33.594 31.28 31.5254 31.28H8.11534C6.0467 31.28 4.36974 29.8738 4.36974 28.1391L6.30106 11.4779Z" fill="white"/>
<path d="M25.6144 12.3031V8.17764C25.6144 5.44356 23.0203 3.22714 19.8204 3.22714C16.6204 3.22714 14.0264 5.44356 14.0264 8.17764V12.3031M8.11534 31.28H31.5254C33.594 31.28 35.271 29.8738 35.271 28.1391L32.8715 11.4779C32.8715 9.74329 31.1945 8.33709 29.1259 8.33709H10.0467C7.97803 8.33709 6.30106 9.74329 6.30106 11.4779L4.36974 28.1391C4.36974 29.8738 6.0467 31.28 8.11534 31.28Z" stroke="black" stroke-width="0.985887" stroke-linecap="round" stroke-linejoin="round"/>
<path d="M18.5727 22.6708L20.4421 17.2591C20.5687 16.9218 20.8076 16.7531 21.1731 16.7531H22.6771C23.1409 16.7531 23.3377 17.0342 23.1831 17.47L20.0205 26.6627C19.894 27.0001 19.6409 27.1688 19.2895 27.1688H17.8699C17.5044 27.1688 17.2654 27.0001 17.1389 26.6627L13.9622 17.47C13.8076 17.0342 14.0044 16.7531 14.4683 16.7531H15.9723C16.3237 16.7531 16.5767 16.9218 16.7032 17.2591L18.5727 22.6708Z" fill="#AE0000"/>
<path d="M67.3859 17.8772L69.5007 24.2734H69.584L71.6949 17.8772H73.3138L70.449 26.0033H68.6318L65.771 17.8772H67.3859ZM74.3206 26.0033V19.9088H75.757V26.0033H74.3206ZM75.0428 19.0438C74.8153 19.0438 74.6195 18.9684 74.4555 18.8176C74.2915 18.6642 74.2095 18.4804 74.2095 18.2661C74.2095 18.0492 74.2915 17.8653 74.4555 17.7146C74.6195 17.5611 74.8153 17.4844 75.0428 17.4844C75.2729 17.4844 75.4687 17.5611 75.63 17.7146C75.794 17.8653 75.876 18.0492 75.876 18.2661C75.876 18.4804 75.794 18.6642 75.63 18.8176C75.4687 18.9684 75.2729 19.0438 75.0428 19.0438ZM82.0509 21.5197L80.7416 21.6625C80.7045 21.5303 80.6397 21.406 80.5471 21.2896C80.4572 21.1732 80.3355 21.0793 80.1821 21.0079C80.0287 20.9364 79.8409 20.9007 79.6187 20.9007C79.3198 20.9007 79.0685 20.9655 78.8648 21.0951C78.6637 21.2248 78.5646 21.3927 78.5672 21.5991C78.5646 21.7763 78.6294 21.9205 78.7616 22.0316C78.8965 22.1427 79.1187 22.2339 79.4282 22.3053L80.4678 22.5275C81.0444 22.6519 81.473 22.8489 81.7534 23.1187C82.0364 23.3885 82.1792 23.7417 82.1819 24.1781C82.1792 24.5617 82.0668 24.9003 81.8446 25.1939C81.6251 25.4849 81.3195 25.7124 80.9281 25.8764C80.5366 26.0404 80.0869 26.1224 79.579 26.1224C78.833 26.1224 78.2326 25.9663 77.7776 25.6542C77.3226 25.3394 77.0515 24.9016 76.9642 24.3408L78.3648 24.2059C78.4283 24.481 78.5632 24.6887 78.7696 24.8289C78.9759 24.9691 79.2444 25.0392 79.575 25.0392C79.9163 25.0392 80.19 24.9691 80.3964 24.8289C80.6053 24.6887 80.7098 24.5154 80.7098 24.3091C80.7098 24.1345 80.6424 23.9903 80.5075 23.8766C80.3752 23.7628 80.1689 23.6756 79.8885 23.6147L78.8489 23.3965C78.2643 23.2748 77.8318 23.0698 77.5514 22.7815C77.271 22.4905 77.1322 22.1228 77.1348 21.6784C77.1322 21.3028 77.234 20.9774 77.4403 20.7023C77.6493 20.4246 77.939 20.2103 78.3093 20.0595C78.6823 19.9061 79.1121 19.8294 79.5988 19.8294C80.313 19.8294 80.8751 19.9815 81.2852 20.2857C81.6978 20.5899 81.9531 21.0012 82.0509 21.5197ZM87.2508 23.4401V19.9088H88.6871V26.0033H87.2944V24.9201H87.2309C87.0934 25.2614 86.8672 25.5404 86.5524 25.7573C86.2403 25.9742 85.8554 26.0827 85.3978 26.0827C84.9984 26.0827 84.6452 25.9941 84.3384 25.8169C84.0342 25.637 83.7961 25.3764 83.6242 25.0352C83.4522 24.6913 83.3663 24.276 83.3663 23.7893V19.9088H84.8026V23.5671C84.8026 23.9533 84.9084 24.2601 85.1201 24.4876C85.3317 24.7151 85.6094 24.8289 85.9533 24.8289C86.1649 24.8289 86.3699 24.7773 86.5683 24.6741C86.7667 24.571 86.9294 24.4175 87.0564 24.2139C87.186 24.0075 87.2508 23.7496 87.2508 23.4401ZM91.9179 26.1263C91.5317 26.1263 91.1839 26.0576 90.8744 25.92C90.5675 25.7798 90.3242 25.5735 90.1443 25.301C89.9671 25.0286 89.8785 24.6926 89.8785 24.2932C89.8785 23.9493 89.942 23.665 90.0689 23.4401C90.1959 23.2153 90.3692 23.0354 90.5887 22.9005C90.8083 22.7656 91.0556 22.6638 91.3307 22.595C91.6084 22.5236 91.8954 22.472 92.1917 22.4402C92.5488 22.4032 92.8385 22.3701 93.0607 22.341C93.2829 22.3093 93.4442 22.2617 93.5447 22.1982C93.6479 22.1321 93.6995 22.0302 93.6995 21.8927V21.8689C93.6995 21.57 93.6109 21.3385 93.4336 21.1745C93.2564 21.0105 93.0011 20.9285 92.6678 20.9285C92.316 20.9285 92.037 21.0052 91.8306 21.1586C91.627 21.3121 91.4894 21.4933 91.418 21.7022L90.0769 21.5118C90.1827 21.1414 90.3572 20.8319 90.6006 20.5833C90.844 20.332 91.1416 20.1442 91.4934 20.0199C91.8452 19.8929 92.234 19.8294 92.6599 19.8294C92.9535 19.8294 93.2458 19.8638 93.5368 19.9326C93.8278 20.0013 94.0936 20.1151 94.3343 20.2738C94.575 20.4299 94.7681 20.6428 94.9136 20.9126C95.0618 21.1824 95.1358 21.5197 95.1358 21.9244V26.0033H93.755V25.1661H93.7074C93.6201 25.3354 93.4971 25.4941 93.3384 25.6423C93.1823 25.7878 92.9853 25.9055 92.7472 25.9954C92.5118 26.0827 92.2354 26.1263 91.9179 26.1263ZM92.2909 25.0709C92.5792 25.0709 92.8292 25.014 93.0408 24.9003C93.2524 24.7839 93.4151 24.6305 93.5289 24.44C93.6453 24.2496 93.7034 24.0419 93.7034 23.8171V23.0989C93.6585 23.1359 93.5818 23.1703 93.4733 23.2021C93.3675 23.2338 93.2485 23.2616 93.1162 23.2854C92.9839 23.3092 92.853 23.3304 92.7234 23.3489C92.5938 23.3674 92.4814 23.3833 92.3861 23.3965C92.1719 23.4256 91.9801 23.4732 91.8108 23.5393C91.6415 23.6055 91.5079 23.698 91.41 23.8171C91.3122 23.9335 91.2632 24.0842 91.2632 24.2694C91.2632 24.5339 91.3598 24.7336 91.5529 24.8685C91.746 25.0035 91.992 25.0709 92.2909 25.0709ZM98.0165 17.8772V26.0033H96.5801V17.8772H98.0165ZM104.693 26.1224C104.138 26.1224 103.66 26.0219 103.261 25.8208C102.862 25.6198 102.553 25.3487 102.336 25.0074C102.122 24.6635 102.015 24.276 102.015 23.8448C102.015 23.5195 102.081 23.2312 102.213 22.9799C102.348 22.7286 102.534 22.4958 102.769 22.2815C103.007 22.0673 103.282 21.8543 103.594 21.6427L105.035 20.6627C105.246 20.5251 105.406 20.3796 105.515 20.2262C105.626 20.0728 105.681 19.8929 105.681 19.6866C105.681 19.512 105.607 19.3467 105.459 19.1906C105.314 19.0345 105.113 18.9565 104.856 18.9565C104.684 18.9565 104.532 18.9975 104.4 19.0795C104.27 19.1588 104.168 19.2633 104.094 19.393C104.023 19.5226 103.987 19.6601 103.987 19.8056C103.987 19.9828 104.036 20.1627 104.134 20.3452C104.234 20.5277 104.364 20.7169 104.523 20.9126C104.684 21.1084 104.856 21.316 105.039 21.5356L108.852 26.0033H107.296L104.13 22.3768C103.894 22.1017 103.667 21.8305 103.447 21.5633C103.231 21.2962 103.052 21.0184 102.912 20.7301C102.774 20.4391 102.705 20.1244 102.705 19.7858C102.705 19.4022 102.794 19.0597 102.971 18.7581C103.149 18.4539 103.396 18.2145 103.713 18.0399C104.033 17.8653 104.408 17.778 104.836 17.778C105.265 17.778 105.632 17.8627 105.939 18.032C106.246 18.2013 106.483 18.4261 106.649 18.7065C106.816 18.9869 106.899 19.2924 106.899 19.6231C106.899 20.0066 106.804 20.3505 106.614 20.6547C106.423 20.9563 106.159 21.2301 105.82 21.4761L104.178 22.6783C103.908 22.8741 103.715 23.0724 103.598 23.2735C103.482 23.4719 103.424 23.6412 103.424 23.7814C103.424 23.9956 103.478 24.19 103.586 24.3646C103.695 24.5392 103.847 24.6794 104.043 24.7852C104.241 24.8884 104.472 24.94 104.737 24.94C105.028 24.94 105.315 24.8752 105.598 24.7455C105.881 24.6133 106.139 24.4255 106.372 24.1821C106.604 23.9388 106.79 23.6478 106.927 23.3092C107.065 22.968 107.134 22.5897 107.134 22.1744H108.368C108.368 22.6876 108.311 23.1346 108.197 23.5155C108.083 23.8938 107.936 24.2139 107.756 24.4757C107.577 24.735 107.386 24.9426 107.185 25.0987C107.122 25.1436 107.061 25.1886 107.003 25.2336C106.944 25.2786 106.884 25.3235 106.82 25.3685C106.534 25.6277 106.2 25.8182 105.816 25.9399C105.435 26.0615 105.061 26.1224 104.693 26.1224ZM112.509 26.0033V17.8772H115.62C116.207 17.8772 116.695 17.9698 117.084 18.155C117.475 18.3375 117.768 18.5875 117.961 18.9049C118.156 19.2223 118.254 19.5821 118.254 19.9842C118.254 20.3148 118.191 20.5978 118.064 20.8333C117.937 21.066 117.766 21.2552 117.552 21.4007C117.338 21.5462 117.098 21.6506 116.834 21.7141V21.7935C117.122 21.8094 117.399 21.898 117.663 22.0593C117.93 22.218 118.149 22.4429 118.318 22.7339C118.487 23.0248 118.572 23.3766 118.572 23.7893C118.572 24.2099 118.47 24.5882 118.266 24.9241C118.063 25.2574 117.756 25.5206 117.346 25.7137C116.936 25.9068 116.42 26.0033 115.798 26.0033H112.509ZM113.981 24.7733H115.564C116.098 24.7733 116.483 24.6715 116.719 24.4678C116.957 24.2615 117.076 23.9969 117.076 23.6742C117.076 23.4335 117.016 23.2166 116.897 23.0235C116.778 22.8278 116.609 22.6743 116.389 22.5632C116.17 22.4495 115.908 22.3926 115.604 22.3926H113.981V24.7733ZM113.981 21.3332H115.437C115.691 21.3332 115.92 21.2869 116.124 21.1943C116.327 21.0991 116.487 20.9655 116.604 20.7936C116.723 20.619 116.782 20.4127 116.782 20.1746C116.782 19.8598 116.671 19.6006 116.449 19.3969C116.229 19.1932 115.903 19.0914 115.469 19.0914H113.981V21.3332ZM123.673 23.4401V19.9088H125.11V26.0033H123.717V24.9201H123.654C123.516 25.2614 123.29 25.5404 122.975 25.7573C122.663 25.9742 122.278 26.0827 121.82 26.0827C121.421 26.0827 121.068 25.9941 120.761 25.8169C120.457 25.637 120.219 25.3764 120.047 25.0352C119.875 24.6913 119.789 24.276 119.789 23.7893V19.9088H121.225V23.5671C121.225 23.9533 121.331 24.2601 121.543 24.4876C121.754 24.7151 122.032 24.8289 122.376 24.8289C122.588 24.8289 122.793 24.7773 122.991 24.6741C123.189 24.571 123.352 24.4175 123.479 24.2139C123.609 24.0075 123.673 23.7496 123.673 23.4401ZM126.587 26.0033V19.9088H128.023V26.0033H126.587ZM127.309 19.0438C127.081 19.0438 126.886 18.9684 126.722 18.8176C126.558 18.6642 126.476 18.4804 126.476 18.2661C126.476 18.0492 126.558 17.8653 126.722 17.7146C126.886 17.5611 127.081 17.4844 127.309 17.4844C127.539 17.4844 127.735 17.5611 127.896 17.7146C128.06 17.8653 128.142 18.0492 128.142 18.2661C128.142 18.4804 128.06 18.6642 127.896 18.8176C127.735 18.9684 127.539 19.0438 127.309 19.0438ZM130.936 17.8772V26.0033H129.5V17.8772H130.936ZM134.675 26.1105C134.196 26.1105 133.768 25.9875 133.39 25.7415C133.011 25.4955 132.712 25.1384 132.493 24.6702C132.273 24.202 132.164 23.6332 132.164 22.964C132.164 22.2868 132.275 21.7154 132.497 21.2499C132.722 20.7817 133.025 20.4286 133.405 20.1905C133.786 19.9498 134.211 19.8294 134.679 19.8294C135.036 19.8294 135.33 19.8903 135.56 20.0119C135.79 20.131 135.973 20.2751 136.108 20.4444C136.242 20.6111 136.347 20.7685 136.421 20.9166H136.481V17.8772H137.921V26.0033H136.508V25.0431H136.421C136.347 25.1913 136.24 25.3487 136.1 25.5153C135.959 25.6793 135.774 25.8195 135.544 25.9359C135.314 26.0523 135.024 26.1105 134.675 26.1105ZM135.076 24.932C135.38 24.932 135.639 24.85 135.854 24.686C136.068 24.5194 136.231 24.2879 136.342 23.9917C136.453 23.6954 136.508 23.3502 136.508 22.9561C136.508 22.5619 136.453 22.2194 136.342 21.9284C136.233 21.6374 136.072 21.4112 135.858 21.2499C135.646 21.0885 135.385 21.0079 135.076 21.0079C134.756 21.0079 134.489 21.0912 134.274 21.2578C134.06 21.4245 133.899 21.6546 133.79 21.9482C133.682 22.2418 133.628 22.5778 133.628 22.9561C133.628 23.337 133.682 23.6769 133.79 23.9758C133.901 24.272 134.064 24.5062 134.278 24.6781C134.495 24.8474 134.761 24.932 135.076 24.932Z" fill="white"/>
</svg>