<svg xmlns="http://www.w3.org/2000/svg" width="78" height="68" viewBox="0 0 78 68" fill="none">
<path d="M52.0189 32.3332C52.458 32.7932 52.4789 33.2324 52.0398 33.6716C51.7261 33.9853 51.3288 34.3617 50.8478 34.759L52.9599 37.0803C53.5246 37.6867 53.2736 38.2305 52.4371 38.2305H50.3668C49.8858 38.2305 49.5094 38.0632 49.2166 37.7286L48.1919 36.6411C47.7527 37.0385 47.209 37.4776 46.5189 37.854C45.8288 38.2305 44.9296 38.5232 43.7376 38.5232C42.5874 38.5232 41.1862 38.2932 40.0779 37.624C38.9695 36.9757 38.133 35.9301 38.133 34.3199C38.133 33.337 38.6558 32.4796 39.4087 31.7267C40.1406 30.9948 41.1026 30.3674 42.0227 29.8864C41.5836 29.3218 41.1026 28.7781 40.768 28.2134C40.4125 27.6488 40.1825 27.0842 40.1825 26.4777C40.1825 24.0519 41.8973 22.4207 45.1387 22.4207C46.6653 22.4207 47.8364 22.9435 48.6101 23.7173C49.363 24.491 49.7394 25.4948 49.7394 26.4777C49.7394 27.6488 49.0493 28.6108 48.3174 29.28C47.8991 29.6773 47.4391 30.0328 46.9162 30.3465L48.7565 32.4377C48.9866 32.2704 49.2166 32.0822 49.4676 31.8731C49.593 31.7685 49.7394 31.664 49.8858 31.5385C50.3668 31.1203 50.8059 31.1203 51.2242 31.5385L52.0189 32.3332ZM44.9087 28.3598C45.2433 28.1716 45.6615 27.8997 45.9543 27.5651C46.247 27.2515 46.4562 26.8959 46.4562 26.4777C46.4562 26.0595 46.3516 25.6412 46.1216 25.3484C45.8706 25.0557 45.5151 24.8674 44.9505 24.9302C43.9676 25.0138 43.5912 25.5576 43.5912 26.3941C43.5912 26.7287 43.8212 27.126 44.0931 27.4606C44.2395 27.6488 44.3858 27.8161 44.5322 27.9625L44.9087 28.3598ZM43.8003 35.3236C44.4486 35.3236 44.9923 35.0727 45.4106 34.8217C45.6615 34.6754 45.8915 34.4871 46.0797 34.2989L43.8839 31.9777C43.1102 32.3332 42.5456 32.7514 42.1273 33.2533C41.9182 33.5043 41.8136 33.7761 41.8136 34.048C41.8136 34.6126 42.0855 34.9263 42.5037 35.0936C42.9011 35.2818 43.382 35.3236 43.8003 35.3236ZM57.2888 38.2305C56.6614 38.2305 56.3477 37.9168 56.3477 37.2894V23.6964C56.3477 23.069 56.6614 22.7553 57.2888 22.7553H63.1024C64.4199 22.7553 65.5492 23.1526 66.4484 23.9264C66.783 24.2401 67.1804 24.5956 67.4731 25.1393C67.7659 25.683 67.975 26.3941 67.975 27.3351V27.356C67.975 28.0043 67.7659 28.6108 67.494 29.0918C67.2222 29.5936 66.8458 29.9492 66.5321 30.0537C66.8039 30.1165 67.3477 30.3883 67.8496 30.953C68.3514 31.5176 68.7697 32.3123 68.8533 33.337C68.8743 33.9225 68.8115 34.6544 68.5187 35.3864C68.226 36.1183 67.7241 36.8293 67.034 37.3521C66.3439 37.875 65.4028 38.2305 64.2108 38.2305H57.2888ZM60.112 26.2686V28.8617H62.8933C63.207 28.8617 63.5625 28.7572 63.8344 28.548C64.0853 28.3389 64.2944 28.0461 64.2944 27.6279C64.2944 26.9378 63.9389 26.2686 63.1024 26.2686H60.112ZM60.112 32.0613V34.6544H63.5416C64.2944 34.6544 64.9009 34.2571 64.9009 33.3579C64.9009 32.4586 64.3363 32.0613 63.4161 32.0613H60.112Z" fill="white"/>
<path d="M7.54068 15.7536C7.54068 13.2867 9.57843 11.2868 12.0921 11.2868H35.276C37.7897 11.2868 39.8274 13.2867 39.8274 15.7536L42.7432 39.4489C42.7432 41.9159 40.7055 43.9157 38.1918 43.9157H9.74529C7.2316 43.9157 5.19385 41.9159 5.19385 39.4489L7.54068 15.7536Z" fill="#AE0000"/>
<path d="M31.009 16.9271V11.06C31.009 7.17167 27.8569 4.01953 23.9685 4.01953C20.0802 4.01953 16.928 7.17167 16.928 11.06V16.9271M9.74529 43.9157H38.1918C40.7055 43.9157 42.7432 41.9159 42.7432 39.4489L39.8274 15.7536C39.8274 13.2867 37.7897 11.2868 35.276 11.2868H12.0921C9.57843 11.2868 7.54068 13.2867 7.54068 15.7536L5.19385 39.4489C5.19385 41.9159 7.2316 43.9157 9.74529 43.9157Z" stroke="white" stroke-width="1.46677" stroke-linecap="round" stroke-linejoin="round"/>
<path d="M23.9079 31.5385L26.6892 23.4872C26.8774 22.9853 27.2329 22.7344 27.7767 22.7344H30.0143C30.7044 22.7344 30.9972 23.1526 30.7671 23.8009L26.0619 37.4776C25.8736 37.9795 25.4972 38.2305 24.9744 38.2305H22.8623C22.3185 38.2305 21.963 37.9795 21.7748 37.4776L17.0486 23.8009C16.8186 23.1526 17.1113 22.7344 17.8015 22.7344H20.0391C20.5619 22.7344 20.9383 22.9853 21.1265 23.4872L23.9079 31.5385Z" fill="white"/>
<path d="M2.48348 52.9026L4.70447 59.6197H4.79198L7.0088 52.9026H8.70892L5.70037 61.4365H3.7919L0.787521 52.9026H2.48348ZM9.76629 61.4365V55.0361H11.2747V61.4365H9.76629ZM10.5247 54.1277C10.2858 54.1277 10.0802 54.0485 9.90797 53.8901C9.73573 53.729 9.64962 53.536 9.64962 53.3109C9.64962 53.0831 9.73573 52.8901 9.90797 52.7317C10.0802 52.5706 10.2858 52.49 10.5247 52.49C10.7664 52.49 10.9719 52.5706 11.1414 52.7317C11.3136 52.8901 11.3997 53.0831 11.3997 53.3109C11.3997 53.536 11.3136 53.729 11.1414 53.8901C10.9719 54.0485 10.7664 54.1277 10.5247 54.1277ZM17.8846 56.7279L16.5095 56.8779C16.4706 56.739 16.4025 56.6084 16.3053 56.4862C16.2109 56.3639 16.0831 56.2653 15.9219 56.1903C15.7608 56.1153 15.5636 56.0778 15.3302 56.0778C15.0163 56.0778 14.7524 56.1459 14.5385 56.282C14.3274 56.4181 14.2232 56.5945 14.226 56.8112C14.2232 56.9973 14.2913 57.1487 14.4302 57.2654C14.5718 57.3821 14.8052 57.4779 15.1302 57.5529L16.222 57.7863C16.8276 57.9168 17.2776 58.1238 17.5721 58.4071C17.8693 58.6905 18.0193 59.0614 18.0221 59.5197C18.0193 59.9225 17.9013 60.2781 17.6679 60.5865C17.4373 60.892 17.1165 61.1309 16.7053 61.3032C16.2942 61.4754 15.8219 61.5615 15.2886 61.5615C14.5052 61.5615 13.8746 61.3976 13.3968 61.0698C12.9189 60.7393 12.6342 60.2795 12.5425 59.6906L14.0135 59.5489C14.0801 59.8378 14.2218 60.0559 14.4385 60.2031C14.6552 60.3503 14.9371 60.424 15.2844 60.424C15.6428 60.424 15.9303 60.3503 16.147 60.2031C16.3664 60.0559 16.4761 59.8739 16.4761 59.6572C16.4761 59.4739 16.4053 59.3225 16.2636 59.203C16.1247 59.0836 15.9081 58.9919 15.6136 58.928L14.5218 58.6988C13.9079 58.571 13.4537 58.3557 13.1592 58.0529C12.8648 57.7474 12.7189 57.3612 12.7217 56.8945C12.7189 56.5001 12.8259 56.1584 13.0426 55.8695C13.262 55.5778 13.5662 55.3528 13.9551 55.1944C14.3468 55.0333 14.7983 54.9527 15.3094 54.9527C16.0595 54.9527 16.6498 55.1125 17.0804 55.4319C17.5137 55.7514 17.7818 56.1834 17.8846 56.7279ZM23.3454 58.7447V55.0361H24.8538V61.4365H23.3912V60.2989H23.3246C23.1801 60.6573 22.9426 60.9504 22.612 61.1782C22.2842 61.406 21.88 61.5199 21.3994 61.5199C20.9799 61.5199 20.6091 61.4268 20.2868 61.2407C19.9674 61.0518 19.7174 60.7781 19.5368 60.4198C19.3562 60.0586 19.2659 59.6225 19.2659 59.1114V55.0361H20.7744V58.878C20.7744 59.2836 20.8855 59.6058 21.1077 59.8447C21.33 60.0836 21.6217 60.2031 21.9828 60.2031C22.205 60.2031 22.4203 60.1489 22.6287 60.0406C22.837 59.9322 23.0079 59.7711 23.1412 59.5572C23.2773 59.3405 23.3454 59.0697 23.3454 58.7447ZM28.2468 61.5657C27.8412 61.5657 27.4759 61.4935 27.1509 61.349C26.8286 61.2018 26.5731 60.9851 26.3842 60.699C26.198 60.4128 26.105 60.06 26.105 59.6406C26.105 59.2794 26.1716 58.9808 26.305 58.7447C26.4383 58.5085 26.6203 58.3196 26.8509 58.178C27.0814 58.0363 27.3412 57.9293 27.6301 57.8571C27.9218 57.7821 28.2232 57.7279 28.5343 57.6946C28.9093 57.6557 29.2135 57.621 29.4469 57.5904C29.6802 57.5571 29.8497 57.5071 29.9552 57.4404C30.0636 57.371 30.1178 57.264 30.1178 57.1195V57.0945C30.1178 56.7806 30.0247 56.5376 29.8386 56.3653C29.6524 56.1931 29.3844 56.107 29.0343 56.107C28.6649 56.107 28.3718 56.1875 28.1551 56.3487C27.9412 56.5098 27.7968 56.7001 27.7217 56.9195L26.3133 56.7195C26.4244 56.3306 26.6078 56.0056 26.8634 55.7444C27.1189 55.4805 27.4315 55.2833 27.8009 55.1527C28.1704 55.0194 28.5788 54.9527 29.026 54.9527C29.3344 54.9527 29.6413 54.9888 29.9469 55.0611C30.2525 55.1333 30.5317 55.2527 30.7845 55.4194C31.0373 55.5833 31.2401 55.807 31.3928 56.0903C31.5484 56.3737 31.6262 56.7279 31.6262 57.1529V61.4365H30.1761V60.5573H30.1261C30.0344 60.7351 29.9052 60.9018 29.7386 61.0573C29.5747 61.2101 29.3677 61.3337 29.1177 61.4282C28.8704 61.5199 28.5801 61.5657 28.2468 61.5657ZM28.6385 60.4573C28.9413 60.4573 29.2038 60.3976 29.426 60.2781C29.6483 60.1559 29.8191 59.9948 29.9386 59.7947C30.0608 59.5947 30.1219 59.3767 30.1219 59.1405V58.3863C30.0747 58.4252 29.9941 58.4613 29.8802 58.4946C29.7691 58.528 29.6441 58.5571 29.5052 58.5822C29.3663 58.6072 29.2288 58.6294 29.0927 58.6488C28.9566 58.6683 28.8385 58.6849 28.7385 58.6988C28.5135 58.7294 28.3121 58.7794 28.1343 58.8488C27.9565 58.9183 27.8162 59.0155 27.7134 59.1405C27.6106 59.2628 27.5592 59.4211 27.5592 59.6156C27.5592 59.8934 27.6606 60.1031 27.8634 60.2448C28.0662 60.3864 28.3246 60.4573 28.6385 60.4573ZM34.6514 52.9026V61.4365H33.143V52.9026H34.6514ZM41.6634 61.5615C41.08 61.5615 40.5786 61.456 40.1591 61.2448C39.7396 61.0337 39.416 60.749 39.1882 60.3906C38.9632 60.0295 38.8507 59.6225 38.8507 59.1697C38.8507 58.828 38.9201 58.5252 39.059 58.2613C39.2007 57.9974 39.3952 57.7529 39.6424 57.5279C39.8924 57.3029 40.1813 57.0793 40.5091 56.857L42.0217 55.8278C42.244 55.6833 42.412 55.5305 42.5259 55.3694C42.6426 55.2083 42.701 55.0194 42.701 54.8027C42.701 54.6194 42.6232 54.4457 42.4676 54.2818C42.3148 54.1179 42.1037 54.036 41.8342 54.036C41.6537 54.036 41.4939 54.079 41.355 54.1652C41.2189 54.2485 41.1119 54.3582 41.0342 54.4944C40.9592 54.6305 40.9217 54.7749 40.9217 54.9277C40.9217 55.1138 40.9731 55.3027 41.0758 55.4944C41.1814 55.6861 41.3175 55.8847 41.4842 56.0903C41.6537 56.2959 41.8342 56.5139 42.0259 56.7445L46.0304 61.4365H44.3969L41.0717 57.6279C40.8244 57.339 40.5855 57.0543 40.355 56.7737C40.1272 56.4931 39.9396 56.2014 39.7924 55.8986C39.648 55.593 39.5757 55.2625 39.5757 54.9069C39.5757 54.5041 39.6688 54.1443 39.8549 53.8276C40.041 53.5082 40.3008 53.2568 40.6341 53.0734C40.9703 52.8901 41.3634 52.7984 41.8134 52.7984C42.2634 52.7984 42.6496 52.8873 42.9718 53.0651C43.2941 53.2429 43.5427 53.479 43.7177 53.7735C43.8927 54.0679 43.9802 54.3888 43.9802 54.736C43.9802 55.1388 43.8802 55.5 43.6802 55.8195C43.4802 56.1361 43.2024 56.4237 42.8468 56.682L41.1217 57.9446C40.8383 58.1502 40.6355 58.3585 40.5133 58.5697C40.3911 58.778 40.3299 58.9558 40.3299 59.103C40.3299 59.328 40.3869 59.5322 40.5008 59.7156C40.6147 59.8989 40.7744 60.0461 40.98 60.1573C41.1883 60.2656 41.4314 60.3198 41.7092 60.3198C42.0148 60.3198 42.3162 60.2517 42.6134 60.1156C42.9107 59.9767 43.1815 59.7795 43.426 59.5239C43.6705 59.2683 43.8649 58.9627 44.0094 58.6072C44.1538 58.2488 44.2261 57.8515 44.2261 57.4154H45.522C45.522 57.9543 45.4623 58.4238 45.3428 58.8238C45.2234 59.2211 45.0692 59.5572 44.8803 59.8322C44.6914 60.1045 44.4914 60.3226 44.2802 60.4865C44.2136 60.5337 44.1497 60.5809 44.0886 60.6281C44.0274 60.6754 43.9635 60.7226 43.8969 60.7698C43.5969 61.0421 43.2454 61.2421 42.8426 61.3699C42.4426 61.4976 42.0495 61.5615 41.6634 61.5615ZM49.8713 61.4365V52.9026H53.1382C53.7549 52.9026 54.2674 52.9998 54.6758 53.1943C55.0869 53.3859 55.3939 53.6485 55.5967 53.9818C55.8022 54.3152 55.905 54.693 55.905 55.1152C55.905 55.4625 55.8384 55.7597 55.705 56.007C55.5717 56.2514 55.3925 56.4501 55.1675 56.6028C54.9425 56.7556 54.6911 56.8654 54.4133 56.932V57.0154C54.7161 57.032 55.0064 57.1251 55.2841 57.2946C55.5647 57.4612 55.7939 57.6974 55.9717 58.0029C56.1495 58.3085 56.2384 58.678 56.2384 59.1114C56.2384 59.5531 56.1314 59.9503 55.9175 60.3031C55.7036 60.6531 55.3814 60.9295 54.9508 61.1323C54.5202 61.3351 53.9785 61.4365 53.3257 61.4365H49.8713ZM51.4172 60.1448H53.0798C53.641 60.1448 54.0452 60.0378 54.2924 59.8239C54.5424 59.6072 54.6674 59.3294 54.6674 58.9905C54.6674 58.7377 54.6049 58.5099 54.4799 58.3071C54.3549 58.1016 54.1771 57.9404 53.9466 57.8238C53.716 57.7043 53.441 57.6446 53.1215 57.6446H51.4172V60.1448ZM51.4172 56.532H52.9465C53.2132 56.532 53.4535 56.4834 53.6674 56.3862C53.8813 56.2862 54.0493 56.1459 54.1716 55.9653C54.2966 55.7819 54.3591 55.5653 54.3591 55.3152C54.3591 54.9847 54.2424 54.7124 54.0091 54.4985C53.7785 54.2846 53.4354 54.1777 52.9798 54.1777H51.4172V56.532ZM61.5961 58.7447V55.0361H63.1045V61.4365H61.6419V60.2989H61.5752C61.4308 60.6573 61.1933 60.9504 60.8627 61.1782C60.5349 61.406 60.1307 61.5199 59.6501 61.5199C59.2306 61.5199 58.8598 61.4268 58.5375 61.2407C58.218 61.0518 57.968 60.7781 57.7875 60.4198C57.6069 60.0586 57.5166 59.6225 57.5166 59.1114V55.0361H59.025V58.878C59.025 59.2836 59.1362 59.6058 59.3584 59.8447C59.5806 60.0836 59.8723 60.2031 60.2335 60.2031C60.4557 60.2031 60.671 60.1489 60.8793 60.0406C61.0877 59.9322 61.2585 59.7711 61.3919 59.5572C61.528 59.3405 61.5961 59.0697 61.5961 58.7447ZM64.6557 61.4365V55.0361H66.1641V61.4365H64.6557ZM65.414 54.1277C65.1751 54.1277 64.9696 54.0485 64.7973 53.8901C64.6251 53.729 64.539 53.536 64.539 53.3109C64.539 53.0831 64.6251 52.8901 64.7973 52.7317C64.9696 52.5706 65.1751 52.49 65.414 52.49C65.6557 52.49 65.8613 52.5706 66.0308 52.7317C66.203 52.8901 66.2891 53.0831 66.2891 53.3109C66.2891 53.536 66.203 53.729 66.0308 53.8901C65.8613 54.0485 65.6557 54.1277 65.414 54.1277ZM69.2237 52.9026V61.4365H67.7152V52.9026H69.2237ZM73.15 61.549C72.6472 61.549 72.1972 61.4199 71.7999 61.1615C71.4027 60.9032 71.0888 60.5281 70.8582 60.0364C70.6276 59.5447 70.5123 58.9475 70.5123 58.2446C70.5123 57.5335 70.629 56.9334 70.8624 56.4445C71.0985 55.9528 71.4166 55.5819 71.8166 55.3319C72.2166 55.0791 72.6625 54.9527 73.1542 54.9527C73.5292 54.9527 73.8376 55.0166 74.0793 55.1444C74.3209 55.2694 74.5126 55.4208 74.6543 55.5986C74.796 55.7736 74.9057 55.9389 74.9835 56.0945H75.046V52.9026H76.5586V61.4365H75.0752V60.4281H74.9835C74.9057 60.5837 74.7932 60.749 74.646 60.924C74.4987 61.0962 74.3043 61.2435 74.0626 61.3657C73.8209 61.4879 73.5167 61.549 73.15 61.549ZM73.5709 60.3114C73.8904 60.3114 74.1626 60.2253 74.3876 60.0531C74.6126 59.8781 74.7835 59.635 74.9001 59.3239C75.0168 59.0127 75.0752 58.6502 75.0752 58.2363C75.0752 57.8224 75.0168 57.4626 74.9001 57.157C74.7862 56.8515 74.6168 56.614 74.3918 56.4445C74.1695 56.275 73.8959 56.1903 73.5709 56.1903C73.2347 56.1903 72.9542 56.2778 72.7292 56.4528C72.5041 56.6278 72.3347 56.8695 72.2208 57.1779C72.1069 57.4862 72.0499 57.839 72.0499 58.2363C72.0499 58.6363 72.1069 58.9933 72.2208 59.3072C72.3375 59.6183 72.5083 59.8642 72.7333 60.0448C72.9611 60.2225 73.2403 60.3114 73.5709 60.3114Z" fill="white"/>
</svg>