<svg width="189" height="44" viewBox="0 0 189 44" fill="none" xmlns="http://www.w3.org/2000/svg">
<path d="M54.2908 30.2733C54.6844 30.6856 54.7031 31.0792 54.3095 31.4727C54.0284 31.7539 53.6723 32.0912 53.2413 32.4473L55.1342 34.5276C55.6402 35.0711 55.4153 35.5584 54.6656 35.5584H52.8102C52.3792 35.5584 52.0418 35.4085 51.7794 35.1086L50.8611 34.134C50.4675 34.4901 49.9802 34.8837 49.3618 35.2211C48.7433 35.5584 47.9374 35.8208 46.8691 35.8208C45.8383 35.8208 44.5826 35.6146 43.5893 35.0149C42.596 34.4339 41.8464 33.4968 41.8464 32.0537C41.8464 31.1729 42.3149 30.4045 42.9896 29.7298C43.6456 29.0738 44.5077 28.5116 45.3323 28.0805C44.9387 27.5745 44.5077 27.0872 44.2078 26.5812C43.8892 26.0751 43.683 25.5691 43.683 25.0256C43.683 22.8516 45.2199 21.3897 48.1248 21.3897C49.4929 21.3897 50.5425 21.8583 51.2359 22.5517C51.9106 23.2452 52.248 24.1448 52.248 25.0256C52.248 26.0751 51.6295 26.9373 50.9735 27.537C50.5987 27.8931 50.1864 28.2117 49.7178 28.4928L51.3671 30.367C51.5733 30.217 51.7794 30.0484 52.0043 29.861C52.1168 29.7672 52.248 29.6735 52.3792 29.5611C52.8102 29.1863 53.2038 29.1863 53.5786 29.5611L54.2908 30.2733ZM47.9187 26.7124C48.2185 26.5437 48.5933 26.3 48.8557 26.0002C49.1181 25.7191 49.3055 25.4005 49.3055 25.0256C49.3055 24.6508 49.2118 24.276 49.0057 24.0136C48.7808 23.7512 48.4622 23.5825 47.9561 23.6387C47.0753 23.7137 46.7379 24.201 46.7379 24.9507C46.7379 25.2505 46.9441 25.6066 47.1877 25.9065C47.3189 26.0751 47.4501 26.2251 47.5813 26.3563L47.9187 26.7124ZM46.9253 32.9533C47.5063 32.9533 47.9936 32.7284 48.3685 32.5035C48.5933 32.3723 48.7995 32.2037 48.9682 32.035L47.0003 29.9547C46.3069 30.2733 45.8008 30.6481 45.426 31.0979C45.2386 31.3228 45.1449 31.5664 45.1449 31.8101C45.1449 32.3161 45.3885 32.5972 45.7634 32.7472C46.1195 32.9158 46.5505 32.9533 46.9253 32.9533ZM59.0137 35.5584C58.4514 35.5584 58.1703 35.2773 58.1703 34.715V22.533C58.1703 21.9707 58.4514 21.6896 59.0137 21.6896H64.2239C65.4046 21.6896 66.4166 22.0457 67.2225 22.7391C67.5224 23.0203 67.8785 23.3389 68.1409 23.8262C68.4032 24.3134 68.5907 24.9507 68.5907 25.794V25.8128C68.5907 26.3938 68.4032 26.9373 68.1596 27.3683C67.916 27.8181 67.5786 28.1367 67.2975 28.2304C67.5411 28.2867 68.0284 28.5303 68.4782 29.0363C68.928 29.5423 69.3028 30.2545 69.3778 31.1729C69.3965 31.6976 69.3403 32.3536 69.0779 33.0095C68.8156 33.6655 68.3658 34.3027 67.7473 34.7713C67.1288 35.2398 66.2854 35.5584 65.2172 35.5584H59.0137ZM61.5438 24.8382V27.1622H64.0364C64.3176 27.1622 64.6362 27.0685 64.8798 26.881C65.1047 26.6936 65.2921 26.4312 65.2921 26.0564C65.2921 25.4379 64.9735 24.8382 64.2239 24.8382H61.5438ZM61.5438 30.0296V32.3536H64.6174C65.2921 32.3536 65.8356 31.9975 65.8356 31.1916C65.8356 30.3857 65.3296 30.0296 64.505 30.0296H61.5438Z" fill="white"/>
<path d="M8.40134 14.3039C8.40134 11.9911 10.6373 10.1161 13.3955 10.1161H38.8344C41.5926 10.1161 43.8285 11.9911 43.8285 14.3039L47.0279 36.5189C47.0279 38.8317 44.792 40.7066 42.0338 40.7066H10.8204C8.06219 40.7066 5.82623 38.8317 5.82623 36.5189L8.40134 14.3039Z" fill="white"/>
<path d="M34.1524 15.4041V9.90353C34.1524 6.25809 30.6936 3.30287 26.4271 3.30287C22.1605 3.30287 18.7018 6.25808 18.7018 9.90353V15.4041M10.8204 40.7066H42.0338C44.792 40.7066 47.0279 38.8317 47.0279 36.5189L43.8285 14.3039C43.8285 11.9911 41.5926 10.1161 38.8344 10.1161H13.3955C10.6373 10.1161 8.40134 11.9911 8.40134 14.3039L5.82623 36.5189C5.82623 38.8317 8.06219 40.7066 10.8204 40.7066Z" stroke="black" stroke-width="1.31452" stroke-linecap="round" stroke-linejoin="round"/>
<path d="M24.7636 29.5611L27.2563 22.3456C27.4249 21.8958 27.7435 21.6709 28.2308 21.6709H30.2362C30.8546 21.6709 31.117 22.0457 30.9109 22.6267L26.694 34.8837C26.5253 35.3335 26.188 35.5584 25.7194 35.5584H23.8265C23.3393 35.5584 23.0207 35.3335 22.852 34.8837L18.6164 22.6267C18.4102 22.0457 18.6726 21.6709 19.2911 21.6709H21.2964C21.765 21.6709 22.1023 21.8958 22.271 22.3456L24.7636 29.5611Z" fill="#AE0000"/>
<path d="M89.8478 22.1697L92.6676 30.6978H92.7787L95.5932 22.1697H97.7517L93.932 33.0045H91.509L87.6946 22.1697H89.8478ZM99.0941 33.0045V24.8784H101.009V33.0045H99.0941ZM100.057 23.725C99.7537 23.725 99.4927 23.6245 99.274 23.4235C99.0553 23.2189 98.946 22.9738 98.946 22.6881C98.946 22.3989 99.0553 22.1538 99.274 21.9527C99.4927 21.7482 99.7537 21.6459 100.057 21.6459C100.364 21.6459 100.625 21.7482 100.84 21.9527C101.059 22.1538 101.168 22.3989 101.168 22.6881C101.168 22.9738 101.059 23.2189 100.84 23.4235C100.625 23.6245 100.364 23.725 100.057 23.725ZM109.401 27.0263L107.655 27.2167C107.606 27.0404 107.52 26.8746 107.396 26.7194C107.276 26.5642 107.114 26.439 106.909 26.3438C106.705 26.2486 106.454 26.201 106.158 26.201C105.76 26.201 105.425 26.2874 105.153 26.4602C104.885 26.633 104.753 26.857 104.756 27.1321C104.753 27.3684 104.839 27.5606 105.015 27.7087C105.195 27.8569 105.492 27.9785 105.904 28.0738L107.29 28.37C108.059 28.5358 108.631 28.7986 109.004 29.1583C109.382 29.5181 109.572 29.9889 109.576 30.5709C109.572 31.0823 109.422 31.5337 109.126 31.9252C108.833 32.3132 108.426 32.6165 107.904 32.8352C107.382 33.0538 106.782 33.1632 106.105 33.1632C105.111 33.1632 104.31 32.9551 103.703 32.5389C103.097 32.1192 102.735 31.5355 102.619 30.7878L104.486 30.6079C104.571 30.9747 104.751 31.2516 105.026 31.4385C105.301 31.6254 105.659 31.7189 106.1 31.7189C106.555 31.7189 106.92 31.6254 107.195 31.4385C107.474 31.2516 107.613 31.0205 107.613 30.7454C107.613 30.5127 107.523 30.3204 107.343 30.1688C107.167 30.0171 106.892 29.9007 106.518 29.8196L105.132 29.5286C104.352 29.3664 103.776 29.0931 103.402 28.7086C103.028 28.3207 102.843 27.8304 102.846 27.2379C102.843 26.7371 102.979 26.3032 103.254 25.9364C103.532 25.5661 103.919 25.2804 104.412 25.0794C104.91 24.8748 105.483 24.7725 106.132 24.7725C107.084 24.7725 107.833 24.9753 108.38 25.3809C108.93 25.7865 109.271 26.335 109.401 27.0263ZM116.334 29.5868V24.8784H118.249V33.0045H116.392V31.5602H116.308C116.124 32.0151 115.823 32.3872 115.403 32.6764C114.987 32.9657 114.474 33.1103 113.864 33.1103C113.331 33.1103 112.86 32.9921 112.451 32.7558C112.046 32.516 111.728 32.1686 111.499 31.7136C111.27 31.2551 111.155 30.7014 111.155 30.0524V24.8784H113.07V29.7561C113.07 30.2711 113.211 30.6802 113.493 30.9835C113.775 31.2868 114.146 31.4385 114.604 31.4385C114.886 31.4385 115.16 31.3697 115.424 31.2322C115.689 31.0946 115.906 30.89 116.075 30.6185C116.248 30.3434 116.334 29.9995 116.334 29.5868ZM122.557 33.1685C122.042 33.1685 121.578 33.0768 121.166 32.8934C120.757 32.7064 120.432 32.4313 120.192 32.068C119.956 31.7048 119.838 31.2569 119.838 30.7243C119.838 30.2658 119.923 29.8866 120.092 29.5868C120.261 29.287 120.492 29.0472 120.785 28.8673C121.078 28.6875 121.407 28.5517 121.774 28.46C122.145 28.3647 122.527 28.296 122.922 28.2536C123.398 28.2043 123.785 28.1602 124.081 28.1214C124.377 28.0791 124.592 28.0156 124.726 27.9309C124.864 27.8428 124.933 27.707 124.933 27.5236V27.4918C124.933 27.0933 124.814 26.7847 124.578 26.566C124.342 26.3473 124.001 26.238 123.557 26.238C123.088 26.238 122.716 26.3403 122.441 26.5448C122.169 26.7494 121.986 26.991 121.891 27.2696L120.102 27.0157C120.243 26.5219 120.476 26.1093 120.801 25.7777C121.125 25.4427 121.522 25.1923 121.991 25.0265C122.46 24.8572 122.979 24.7725 123.546 24.7725C123.938 24.7725 124.328 24.8184 124.716 24.9101C125.104 25.0018 125.458 25.1535 125.779 25.3651C126.1 25.5732 126.357 25.8571 126.551 26.2168C126.749 26.5766 126.848 27.0263 126.848 27.5659V33.0045H125.007V31.8882H124.943C124.827 32.1139 124.663 32.3255 124.451 32.523C124.243 32.717 123.98 32.874 123.663 32.9939C123.349 33.1103 122.98 33.1685 122.557 33.1685ZM123.054 31.7612C123.439 31.7612 123.772 31.6854 124.054 31.5337C124.337 31.3785 124.553 31.174 124.705 30.92C124.86 30.6661 124.938 30.3892 124.938 30.0894V29.1319C124.878 29.1812 124.776 29.2271 124.631 29.2694C124.49 29.3117 124.331 29.3488 124.155 29.3805C123.979 29.4123 123.804 29.4405 123.631 29.4652C123.458 29.4898 123.308 29.511 123.181 29.5286C122.896 29.5674 122.64 29.6309 122.414 29.7191C122.189 29.8073 122.01 29.9307 121.88 30.0894C121.749 30.2446 121.684 30.4457 121.684 30.6925C121.684 31.0452 121.813 31.3115 122.07 31.4914C122.328 31.6713 122.656 31.7612 123.054 31.7612ZM130.689 22.1697V33.0045H128.773V22.1697H130.689ZM139.591 33.1632C138.85 33.1632 138.214 33.0291 137.681 32.7611C137.149 32.493 136.738 32.1315 136.449 31.6766C136.163 31.2181 136.02 30.7014 136.02 30.1265C136.02 29.6926 136.108 29.3082 136.285 28.9731C136.464 28.6381 136.711 28.3277 137.025 28.042C137.343 27.7563 137.709 27.4724 138.126 27.1903L140.046 25.8835C140.328 25.7001 140.542 25.5062 140.686 25.3016C140.834 25.097 140.908 24.8572 140.908 24.5821C140.908 24.3493 140.81 24.1289 140.612 23.9208C140.418 23.7127 140.15 23.6087 139.808 23.6087C139.579 23.6087 139.376 23.6633 139.2 23.7727C139.027 23.8785 138.891 24.0178 138.792 24.1906C138.697 24.3634 138.649 24.5468 138.649 24.7408C138.649 24.9771 138.715 25.2169 138.845 25.4603C138.979 25.7037 139.152 25.9558 139.364 26.2168C139.579 26.4778 139.808 26.7547 140.051 27.0474L145.135 33.0045H143.062L138.84 28.169C138.526 27.8022 138.223 27.4407 137.93 27.0845C137.641 26.7282 137.403 26.3579 137.216 25.9735C137.032 25.5855 136.941 25.1658 136.941 24.7144C136.941 24.2029 137.059 23.7462 137.295 23.3441C137.531 22.9385 137.861 22.6193 138.284 22.3866C138.711 22.1538 139.21 22.0374 139.781 22.0374C140.353 22.0374 140.843 22.1503 141.252 22.376C141.661 22.6017 141.977 22.9015 142.199 23.2754C142.421 23.6492 142.533 24.0566 142.533 24.4974C142.533 25.0089 142.406 25.4674 142.152 25.873C141.898 26.275 141.545 26.6401 141.094 26.9681L138.903 28.5711C138.544 28.8321 138.286 29.0966 138.131 29.3646C137.976 29.6292 137.898 29.8549 137.898 30.0418C137.898 30.3275 137.97 30.5867 138.115 30.8195C138.26 31.0523 138.462 31.2392 138.723 31.3803C138.988 31.5178 139.297 31.5866 139.649 31.5866C140.037 31.5866 140.42 31.5002 140.797 31.3274C141.175 31.151 141.519 30.9006 141.829 30.5761C142.139 30.2517 142.386 29.8637 142.57 29.4123C142.753 28.9573 142.845 28.4529 142.845 27.8992H144.49C144.49 28.5834 144.414 29.1795 144.262 29.6874C144.111 30.1917 143.915 30.6185 143.675 30.9676C143.435 31.3133 143.181 31.5901 142.913 31.7982C142.829 31.8582 142.748 31.9182 142.67 31.9781C142.592 32.0381 142.511 32.098 142.427 32.158C142.046 32.5036 141.6 32.7576 141.088 32.9198C140.58 33.082 140.081 33.1632 139.591 33.1632ZM150.012 33.0045V22.1697H154.16C154.943 22.1697 155.593 22.2931 156.112 22.54C156.634 22.7833 157.023 23.1166 157.281 23.5399C157.542 23.9631 157.672 24.4428 157.672 24.9789C157.672 25.4197 157.588 25.7971 157.418 26.111C157.249 26.4214 157.022 26.6736 156.736 26.8676C156.45 27.0615 156.131 27.2009 155.778 27.2855V27.3913C156.163 27.4125 156.531 27.5306 156.884 27.7458C157.24 27.9574 157.531 28.2572 157.757 28.6451C157.983 29.0331 158.096 29.5022 158.096 30.0524C158.096 30.6132 157.96 31.1175 157.688 31.5655C157.417 32.0099 157.008 32.3608 156.461 32.6183C155.914 32.8757 155.226 33.0045 154.398 33.0045H150.012ZM151.975 31.3644H154.085C154.798 31.3644 155.311 31.2286 155.625 30.9571C155.942 30.682 156.101 30.3293 156.101 29.899C156.101 29.578 156.022 29.2888 155.863 29.0313C155.704 28.7703 155.479 28.5658 155.186 28.4177C154.893 28.266 154.544 28.1902 154.138 28.1902H151.975V31.3644ZM151.975 26.7776H153.916C154.255 26.7776 154.56 26.7159 154.831 26.5925C155.103 26.4655 155.316 26.2874 155.472 26.0581C155.63 25.8253 155.71 25.5502 155.71 25.2328C155.71 24.8131 155.562 24.4675 155.265 24.1959C154.973 23.9243 154.537 23.7885 153.959 23.7885H151.975V26.7776ZM164.898 29.5868V24.8784H166.813V33.0045H164.956V31.5602H164.871C164.688 32.0151 164.386 32.3872 163.967 32.6764C163.55 32.9657 163.037 33.1103 162.427 33.1103C161.895 33.1103 161.424 32.9921 161.015 32.7558C160.609 32.516 160.292 32.1686 160.062 31.7136C159.833 31.2551 159.718 30.7014 159.718 30.0524V24.8784H161.634V29.7561C161.634 30.2711 161.775 30.6802 162.057 30.9835C162.339 31.2868 162.709 31.4385 163.168 31.4385C163.45 31.4385 163.723 31.3697 163.988 31.2322C164.252 31.0946 164.469 30.89 164.639 30.6185C164.811 30.3434 164.898 29.9995 164.898 29.5868ZM168.782 33.0045V24.8784H170.697V33.0045H168.782ZM169.745 23.725C169.442 23.725 169.181 23.6245 168.962 23.4235C168.743 23.2189 168.634 22.9738 168.634 22.6881C168.634 22.3989 168.743 22.1538 168.962 21.9527C169.181 21.7482 169.442 21.6459 169.745 21.6459C170.052 21.6459 170.313 21.7482 170.528 21.9527C170.747 22.1538 170.856 22.3989 170.856 22.6881C170.856 22.9738 170.747 23.2189 170.528 23.4235C170.313 23.6245 170.052 23.725 169.745 23.725ZM174.582 22.1697V33.0045H172.667V22.1697H174.582ZM179.567 33.1473C178.928 33.1473 178.357 32.9833 177.853 32.6553C177.348 32.3273 176.95 31.8511 176.657 31.2269C176.364 30.6026 176.218 29.8443 176.218 28.952C176.218 28.0491 176.366 27.2873 176.662 26.6665C176.962 26.0423 177.366 25.5714 177.874 25.254C178.382 24.933 178.948 24.7725 179.572 24.7725C180.048 24.7725 180.44 24.8537 180.747 25.0159C181.053 25.1746 181.297 25.3668 181.477 25.5926C181.657 25.8148 181.796 26.0246 181.895 26.2221H181.974V22.1697H183.894V33.0045H182.011V31.7242H181.895C181.796 31.9217 181.653 32.1315 181.466 32.3537C181.279 32.5724 181.032 32.7593 180.725 32.9145C180.419 33.0697 180.032 33.1473 179.567 33.1473ZM180.101 31.576C180.507 31.576 180.852 31.4667 181.138 31.248C181.424 31.0258 181.641 30.7172 181.789 30.3222C181.937 29.9272 182.011 29.4669 182.011 28.9414C182.011 28.4159 181.937 27.9591 181.789 27.5712C181.644 27.1832 181.429 26.8817 181.143 26.6665C180.861 26.4514 180.514 26.3438 180.101 26.3438C179.674 26.3438 179.318 26.4549 179.032 26.6771C178.747 26.8993 178.532 27.2061 178.387 27.5976C178.242 27.9891 178.17 28.4371 178.17 28.9414C178.17 29.4493 178.242 29.9025 178.387 30.301C178.535 30.6961 178.752 31.0082 179.038 31.2375C179.327 31.4632 179.681 31.576 180.101 31.576Z" fill="white"/>
</svg>
