<svg width="44" height="21" viewBox="0 0 44 21" fill="none" xmlns="http://www.w3.org/2000/svg">
<rect x="0.5" y="0.5" width="42.75" height="20.25" rx="3.75" fill="white"/>
<g clip-path="url(#clip0_1066_2136)">
<path d="M19.6138 5.61328H24.8863V15.6362H19.6138V5.61328Z" fill="#FF5F00"/>
<path d="M19.9485 10.625C19.9485 8.58854 20.8524 6.78229 22.2416 5.61354C21.2206 4.76354 19.9318 4.25 18.5258 4.25C15.1949 4.25 12.5 7.10104 12.5 10.625C12.5 14.149 15.1949 17 18.5258 17C19.9318 17 21.2206 16.4865 22.2416 15.6365C20.8524 14.4854 19.9485 12.6615 19.9485 10.625Z" fill="#EB001B"/>
<path d="M31.9999 10.625C31.9999 14.149 29.3051 17 25.9742 17C24.5682 17 23.2793 16.4865 22.2583 15.6365C23.6643 14.4677 24.5514 12.6615 24.5514 10.625C24.5514 8.58854 23.6476 6.78229 22.2583 5.61354C23.2793 4.76354 24.5682 4.25 25.9742 4.25C29.3051 4.25 31.9999 7.11875 31.9999 10.625Z" fill="#F79E1B"/>
</g>
<defs>
<clipPath id="clip0_1066_2136">
<rect width="19.5" height="12.75" fill="white" transform="translate(12.5 4.25)"/>
</clipPath>
</defs>
</svg>
