<svg xmlns="http://www.w3.org/2000/svg" width="43" height="21" viewBox="0 0 43 21" fill="none">
<rect y="0.5" width="42.75" height="20.25" rx="3.75" fill="white"/>
<g clip-path="url(#clip0_1066_2147)">
<path d="M9.12 5.75067H6.61159C6.43991 5.75067 6.29394 5.89219 6.26715 6.0845L5.25263 13.382C5.23246 13.5259 5.33078 13.6558 5.4595 13.6558H6.65705C6.8287 13.6558 6.97467 13.5143 7.00145 13.3216L7.27507 11.3534C7.30149 11.1607 7.44782 11.0192 7.61911 11.0192H8.4132C10.0656 11.0192 11.0192 10.1121 11.2683 8.31444C11.3805 7.52796 11.273 6.91004 10.9484 6.47728C10.5919 6.00202 9.95955 5.75067 9.12 5.75067ZM9.4094 8.41598C9.27222 9.43715 8.58449 9.43715 7.91951 9.43715H7.541L7.80654 7.53007C7.82233 7.41479 7.91033 7.3299 8.01305 7.3299H8.18652C8.63949 7.3299 9.06682 7.32991 9.2876 7.62282C9.41929 7.79762 9.45964 8.05727 9.4094 8.41598Z" fill="#283B82"/>
<path d="M16.6179 8.38311H15.4168C15.3144 8.38311 15.2261 8.468 15.2102 8.58327L15.1571 8.96443L15.0731 8.82627C14.813 8.39806 14.2331 8.25495 13.6543 8.25495C12.327 8.25495 11.1932 9.39553 10.9725 10.9955C10.8577 11.7936 11.0209 12.5568 11.4199 13.089C11.786 13.5783 12.3097 13.7822 12.9329 13.7822C14.0025 13.7822 14.5956 13.0021 14.5956 13.0021L14.542 13.3807C14.5218 13.5255 14.6201 13.6553 14.7481 13.6553H15.8301C16.0021 13.6553 16.1474 13.5139 16.1745 13.3212L16.8237 8.6569C16.8443 8.51334 16.7463 8.38311 16.6179 8.38311ZM14.9436 11.0355C14.8277 11.814 14.283 12.3367 13.5884 12.3367C13.2396 12.3367 12.9608 12.2097 12.7818 11.9692C12.6043 11.7304 12.5368 11.3904 12.5933 11.0117C12.7015 10.2398 13.2553 9.70015 13.9393 9.70015C14.2805 9.70015 14.5577 9.82871 14.7404 10.0713C14.9235 10.3164 14.996 10.6584 14.9436 11.0355Z" fill="#283B82"/>
<path d="M23.0155 8.38305H21.8084C21.6933 8.38305 21.5851 8.44796 21.5198 8.55659L19.8549 11.3388L19.1493 8.66519C19.1049 8.49788 18.9688 8.38305 18.8148 8.38305H17.6286C17.4844 8.38305 17.3843 8.54282 17.4302 8.69679L18.7598 13.1235L17.5098 15.1254C17.4114 15.2831 17.5105 15.5 17.6803 15.5H18.8859C19.0004 15.5 19.1075 15.4367 19.1724 15.3302L23.1871 8.7555C23.2833 8.59817 23.1846 8.38305 23.0155 8.38305Z" fill="#283B82"/>
<path d="M27.0121 5.75067H24.5033C24.332 5.75067 24.186 5.89219 24.1592 6.0845L23.1447 13.382C23.1246 13.5259 23.2228 13.6558 23.3509 13.6558H24.6383C24.7578 13.6558 24.8602 13.5568 24.8789 13.4219L25.1668 11.3534C25.1932 11.1607 25.3396 11.0192 25.5109 11.0192H26.3046C27.9573 11.0192 28.9106 10.1121 29.16 8.31444C29.2726 7.52796 29.1644 6.91004 28.8398 6.47728C28.4836 6.00202 27.8517 5.75067 27.0121 5.75067ZM27.3015 8.41598C27.1647 9.43715 26.477 9.43715 25.8116 9.43715H25.4335L25.6994 7.53007C25.7152 7.41479 25.8024 7.3299 25.9055 7.3299H26.079C26.5316 7.3299 26.9593 7.32991 27.1801 7.62282C27.3118 7.79762 27.3517 8.05727 27.3015 8.41598Z" fill="#469BDB"/>
<path d="M34.51 8.38311H33.3095C33.2064 8.38311 33.1187 8.468 33.1033 8.58327L33.0502 8.96443L32.9658 8.82627C32.7058 8.39806 32.1263 8.25495 31.5475 8.25495C30.22 8.25495 29.0868 9.39553 28.8659 10.9955C28.7515 11.7936 28.914 12.5568 29.313 13.089C29.6798 13.5783 30.2028 13.7822 30.826 13.7822C31.8955 13.7822 32.4886 13.0021 32.4886 13.0021L32.435 13.3807C32.4149 13.5255 32.5132 13.6553 32.642 13.6553H33.7236C33.8949 13.6553 34.0409 13.5139 34.0677 13.3212L34.7172 8.6569C34.737 8.51334 34.6387 8.38311 34.51 8.38311ZM32.8356 11.0355C32.7204 11.814 32.175 12.3367 31.4804 12.3367C31.1322 12.3367 30.8528 12.2097 30.6738 11.9692C30.4963 11.7304 30.4295 11.3904 30.4853 11.0117C30.5942 10.2398 31.1473 9.70015 31.8314 9.70015C32.1725 9.70015 32.4497 9.82871 32.6324 10.0713C32.8161 10.3164 32.8888 10.6584 32.8356 11.0355Z" fill="#469BDB"/>
<path d="M35.9258 5.95088L34.8962 13.382C34.8761 13.5259 34.9743 13.6558 35.1023 13.6558H36.1374C36.3094 13.6558 36.4554 13.5143 36.4818 13.3216L37.497 6.02459C37.5172 5.88056 37.419 5.75033 37.2909 5.75033H36.1319C36.0295 5.75067 35.9415 5.83567 35.9258 5.95088Z" fill="#469BDB"/>
</g>
<defs>
<clipPath id="clip0_1066_2147">
<rect width="32.25" height="9.75" fill="white" transform="translate(5.25 5.75)"/>
</clipPath>
</defs>
</svg>