<svg xmlns="http://www.w3.org/2000/svg" width="97" height="19" viewBox="0 0 97 19" fill="none">
  <path d="M8.56694 1.75635C8.83313 1.16933 9.66687 1.16932 9.93306 1.75635L11.5868 5.4033C11.6959 5.64399 11.9237 5.80948 12.1863 5.8389L16.1658 6.28471C16.8064 6.35647 17.064 7.1494 16.588 7.58396L13.6305 10.2837C13.4353 10.4619 13.3483 10.7296 13.4015 10.9885L14.2073 14.911C14.337 15.5424 13.6624 16.0324 13.1021 15.714L9.62055 13.7356C9.39077 13.605 9.10923 13.605 8.87945 13.7356L5.39795 15.714C4.83755 16.0324 4.16304 15.5424 4.29274 14.911L5.09848 10.9885C5.15165 10.7296 5.06465 10.4619 4.86947 10.2837L1.91204 7.58396C1.436 7.1494 1.69364 6.35647 2.33419 6.28471L6.31367 5.8389C6.57631 5.80948 6.80408 5.64399 6.91323 5.4033L8.56694 1.75635Z" fill="#FED550"/>
  <path d="M28.0669 1.75635C28.3331 1.16933 29.1669 1.16932 29.4331 1.75635L31.0868 5.4033C31.1959 5.64399 31.4237 5.80948 31.6863 5.8389L35.6658 6.28471C36.3064 6.35647 36.564 7.1494 36.088 7.58396L33.1305 10.2837C32.9353 10.4619 32.8483 10.7296 32.9015 10.9885L33.7073 14.911C33.837 15.5424 33.1624 16.0324 32.6021 15.714L29.1205 13.7356C28.8908 13.605 28.6092 13.605 28.3795 13.7356L24.8979 15.714C24.3376 16.0324 23.663 15.5424 23.7927 14.911L24.5985 10.9885C24.6517 10.7296 24.5647 10.4619 24.3695 10.2837L21.412 7.58396C20.936 7.1494 21.1936 6.35647 21.8342 6.28471L25.8137 5.8389C26.0763 5.80948 26.3041 5.64399 26.4132 5.4033L28.0669 1.75635Z" fill="#FED550"/>
  <path d="M47.5669 1.75635C47.8331 1.16933 48.6669 1.16932 48.9331 1.75635L50.5868 5.4033C50.6959 5.64399 50.9237 5.80948 51.1863 5.8389L55.1658 6.28471C55.8064 6.35647 56.064 7.1494 55.588 7.58396L52.6305 10.2837C52.4353 10.4619 52.3483 10.7296 52.4015 10.9885L53.2073 14.911C53.337 15.5424 52.6624 16.0324 52.1021 15.714L48.6205 13.7356C48.3908 13.605 48.1092 13.605 47.8795 13.7356L44.3979 15.714C43.8376 16.0324 43.163 15.5424 43.2927 14.911L44.0985 10.9885C44.1517 10.7296 44.0647 10.4619 43.8695 10.2837L40.912 7.58396C40.436 7.1494 40.6936 6.35647 41.3342 6.28471L45.3137 5.8389C45.5763 5.80948 45.8041 5.64399 45.9132 5.4033L47.5669 1.75635Z" fill="#FED550"/>
  <path d="M67.0669 1.75635C67.3331 1.16933 68.1669 1.16932 68.4331 1.75635L70.0868 5.4033C70.1959 5.64399 70.4237 5.80948 70.6863 5.8389L74.6658 6.28471C75.3064 6.35647 75.564 7.1494 75.088 7.58396L72.1305 10.2837C71.9353 10.4619 71.8483 10.7296 71.9015 10.9885L72.7073 14.911C72.837 15.5424 72.1624 16.0324 71.6021 15.714L68.1205 13.7356C67.8908 13.605 67.6092 13.605 67.3795 13.7356L63.8979 15.714C63.3376 16.0324 62.663 15.5424 62.7927 14.911L63.5985 10.9885C63.6517 10.7296 63.5647 10.4619 63.3695 10.2837L60.412 7.58396C59.936 7.1494 60.1936 6.35647 60.8342 6.28471L64.8137 5.8389C65.0763 5.80948 65.3041 5.64399 65.4132 5.4033L67.0669 1.75635Z" fill="#FED550"/>
  <path d="M86.5669 1.75635C86.8331 1.16933 87.6669 1.16932 87.9331 1.75635L89.5868 5.4033C89.6959 5.64399 89.9237 5.80948 90.1863 5.8389L94.1658 6.28471C94.8064 6.35647 95.064 7.1494 94.588 7.58396L91.6305 10.2837C91.4353 10.4619 91.3483 10.7296 91.4015 10.9885L92.2073 14.911C92.337 15.5424 91.6624 16.0324 91.1021 15.714L87.6205 13.7356C87.3908 13.605 87.1092 13.605 86.8795 13.7356L83.3979 15.714C82.8376 16.0324 82.163 15.5424 82.2927 14.911L83.0985 10.9885C83.1517 10.7296 83.0647 10.4619 82.8695 10.2837L79.912 7.58396C79.436 7.1494 79.6936 6.35647 80.3342 6.28471L84.3137 5.8389C84.5763 5.80948 84.8041 5.64399 84.9132 5.4033L86.5669 1.75635Z" fill="#FED550"/>
</svg>