<svg xmlns="http://www.w3.org/2000/svg" width="49" height="24" viewBox="0 0 49 24" fill="none">
  <path d="M41.5526 23.9997C40.7392 24.0002 39.9438 23.7779 39.2672 23.3609C38.5906 22.9439 38.0631 22.3509 37.7514 21.6569C37.4397 20.9629 37.3578 20.1992 37.5161 19.4622C37.6745 18.7253 38.0659 18.0482 38.6408 17.5168C39.2158 16.9853 39.9485 16.6233 40.7463 16.4765C41.544 16.3297 42.371 16.4048 43.1225 16.6922C43.8741 16.9796 44.5165 17.4664 44.9684 18.0911C45.4204 18.7157 45.6617 19.4502 45.6617 20.2015C45.6611 21.2082 45.2281 22.1736 44.4577 22.8857C43.6873 23.5978 42.6425 23.9984 41.5526 23.9997ZM41.5526 17.7888C41.0358 17.7883 40.5305 17.9293 40.1006 18.1941C39.6706 18.4589 39.3354 18.8355 39.1372 19.2763C38.9391 19.7171 38.8869 20.2023 38.9874 20.6705C39.0878 21.1387 39.3363 21.5688 39.7015 21.9065C40.0667 22.2442 40.5321 22.4743 41.0389 22.5676C41.5457 22.6609 42.071 22.6133 42.5485 22.4308C43.0259 22.2482 43.4341 21.939 43.7212 21.5422C44.0084 21.1454 44.1616 20.6788 44.1616 20.2015C44.1614 19.5622 43.8865 18.9491 43.3974 18.4967C42.9082 18.0444 42.2447 17.7898 41.5526 17.7888Z" fill="#303030"/>
  <path d="M19.8837 23.9997C19.0702 24.0004 18.2748 23.7783 17.598 23.3614C16.9213 22.9445 16.3936 22.3515 16.0817 21.6576C15.7699 20.9636 15.6879 20.1998 15.8461 19.4628C16.0043 18.7258 16.3956 18.0486 16.9706 17.5171C17.5455 16.9855 18.2782 16.6234 19.076 16.4766C19.8737 16.3297 20.7007 16.4047 21.4524 16.6921C22.204 16.9795 22.8464 17.4663 23.2985 18.091C23.7505 18.7156 23.9917 19.4501 23.9917 20.2015C23.991 21.208 23.558 22.1731 22.7879 22.8851C22.0178 23.5971 20.9733 23.998 19.8837 23.9997ZM19.8837 17.7888C19.3669 17.7881 18.8615 17.929 18.4314 18.1937C18.0013 18.4583 17.6659 18.8349 17.4676 19.2757C17.2693 19.7164 17.217 20.2017 17.3173 20.6699C17.4176 21.1382 17.6661 21.5684 18.0312 21.9062C18.3964 22.244 18.8618 22.4741 19.3686 22.5675C19.8754 22.6609 20.4008 22.6133 20.8783 22.4309C21.3559 22.2484 21.764 21.9391 22.0512 21.5423C22.3384 21.1454 22.4917 20.6788 22.4917 20.2015C22.4912 19.5624 22.2164 18.9496 21.7275 18.4973C21.2386 18.0451 20.5756 17.7903 19.8837 17.7888Z" fill="#303030"/>
  <path d="M46.9629 20.8948H44.9119C44.713 20.8948 44.5222 20.8218 44.3816 20.6919C44.2409 20.562 44.1619 20.3857 44.1619 20.202C44.1619 20.0183 44.2409 19.8421 44.3816 19.7122C44.5222 19.5822 44.713 19.5093 44.9119 19.5093H46.7509V15.8358C46.7505 15.3391 46.6128 14.8508 46.3509 14.417L42.2908 7.69353C42.2562 7.63615 42.2055 7.58835 42.1442 7.55507C42.0828 7.52178 42.013 7.50422 41.9418 7.50417H36.4087V19.512H38.1948C38.3937 19.512 38.5844 19.585 38.7251 19.7149C38.8658 19.8448 38.9448 20.0211 38.9448 20.2048C38.9448 20.3885 38.8658 20.5647 38.7251 20.6946C38.5844 20.8246 38.3937 20.8975 38.1948 20.8975H35.6587C35.4598 20.8975 35.269 20.8246 35.1284 20.6946C34.9877 20.5647 34.9087 20.3885 34.9087 20.2048V6.81141C34.9087 6.62768 34.9877 6.45147 35.1284 6.32156C35.269 6.19164 35.4598 6.11865 35.6587 6.11865H41.9418C42.2802 6.1185 42.6125 6.20181 42.9043 6.35997C43.1961 6.51814 43.437 6.74541 43.6019 7.01832L47.661 13.7427C48.0469 14.3828 48.2496 15.1032 48.25 15.8358V19.706C48.2494 20.0211 48.1137 20.3232 47.8724 20.5461C47.6312 20.7689 47.3041 20.8943 46.9629 20.8948Z" fill="#303030"/>
  <path d="M16.5242 20.8945H9.33302C9.13411 20.8945 8.94334 20.8215 8.80268 20.6916C8.66203 20.5616 8.58301 20.3854 8.58301 20.2017V14.8739C8.58301 14.6902 8.66203 14.514 8.80268 14.3841C8.94334 14.2541 9.13411 14.1812 9.33302 14.1812C9.53194 14.1812 9.72271 14.2541 9.86336 14.3841C10.004 14.514 10.083 14.6902 10.083 14.8739V19.5089H16.5242C16.7231 19.5089 16.9139 19.5819 17.0545 19.7118C17.1952 19.8418 17.2742 20.018 17.2742 20.2017C17.2742 20.3854 17.1952 20.5616 17.0545 20.6916C16.9139 20.8215 16.7231 20.8945 16.5242 20.8945Z" fill="#303030"/>
  <path d="M9.33302 12.4161C9.13411 12.4161 8.94334 12.3431 8.80268 12.2132C8.66203 12.0833 8.58301 11.9071 8.58301 11.7233V7.07167C8.58301 6.88794 8.66203 6.71173 8.80268 6.58181C8.94334 6.45189 9.13411 6.37891 9.33302 6.37891C9.53194 6.37891 9.72271 6.45189 9.86336 6.58181C10.004 6.71173 10.083 6.88794 10.083 7.07167V11.7261C10.0822 11.9093 10.0029 12.0848 9.86231 12.2142C9.72174 12.3435 9.53142 12.4161 9.33302 12.4161Z" fill="#303030"/>
  <path d="M35.6586 20.8946H23.2413C23.0424 20.8946 22.8516 20.8216 22.711 20.6917C22.5703 20.5618 22.4913 20.3856 22.4913 20.2018C22.4913 20.0181 22.5703 19.8419 22.711 19.712C22.8516 19.5821 23.0424 19.5091 23.2413 19.5091H34.9085V1.38552H10.083V4.23877C10.083 4.4225 10.004 4.59871 9.86336 4.72863C9.72271 4.85855 9.53194 4.93153 9.33302 4.93153C9.13411 4.93153 8.94334 4.85855 8.80268 4.72863C8.66203 4.59871 8.58301 4.4225 8.58301 4.23877V1.25805C8.58354 0.924387 8.72734 0.60454 8.98288 0.368689C9.23841 0.132838 9.58479 0.000244265 9.94604 0H35.0466C35.4076 0.000488655 35.7537 0.13319 36.0091 0.369015C36.2644 0.60484 36.4081 0.924547 36.4086 1.25805V20.2018C36.4086 20.3856 36.3296 20.5618 36.1889 20.6917C36.0482 20.8216 35.8575 20.8946 35.6586 20.8946Z" fill="#303030"/>
  <path d="M12.2985 15.5667H2.77931C2.5804 15.5667 2.38963 15.4937 2.24897 15.3638C2.10832 15.2338 2.0293 15.0576 2.0293 14.8739C2.0293 14.6902 2.10832 14.514 2.24897 14.3841C2.38963 14.2541 2.5804 14.1812 2.77931 14.1812H12.2985C12.4974 14.1812 12.6882 14.2541 12.8288 14.3841C12.9695 14.514 13.0485 14.6902 13.0485 14.8739C13.0485 15.0576 12.9695 15.2338 12.8288 15.3638C12.6882 15.4937 12.4974 15.5667 12.2985 15.5667Z" fill="#303030"/>
  <path d="M19.8834 12.4158H6.60011C6.4012 12.4158 6.21043 12.3428 6.06977 12.2129C5.92912 12.083 5.8501 11.9068 5.8501 11.723C5.8501 11.5393 5.92912 11.3631 6.06977 11.2332C6.21043 11.1033 6.4012 11.0303 6.60011 11.0303H19.8834C20.0823 11.0303 20.2731 11.1033 20.4137 11.2332C20.5544 11.3631 20.6334 11.5393 20.6334 11.723C20.6334 11.9068 20.5544 12.083 20.4137 12.2129C20.2731 12.3428 20.0823 12.4158 19.8834 12.4158Z" fill="#303030"/>
  <path d="M6.18712 8.75808H1.00002C0.801099 8.75808 0.61033 8.68509 0.469674 8.55517C0.329019 8.42526 0.25 8.24905 0.25 8.06532C0.25 7.88159 0.329019 7.70538 0.469674 7.57546C0.61033 7.44555 0.801099 7.37256 1.00002 7.37256H6.18712C6.38604 7.37256 6.57681 7.44555 6.71746 7.57546C6.85812 7.70538 6.93714 7.88159 6.93714 8.06532C6.93714 8.24905 6.85812 8.42526 6.71746 8.55517C6.57681 8.68509 6.38604 8.75808 6.18712 8.75808Z" fill="#303030"/>
  <path d="M14.5043 4.93142H5.34816C5.14924 4.93142 4.95847 4.85843 4.81782 4.72851C4.67716 4.5986 4.59814 4.42239 4.59814 4.23866C4.59814 4.05493 4.67716 3.87872 4.81782 3.7488C4.95847 3.61889 5.14924 3.5459 5.34816 3.5459H14.5043C14.7033 3.5459 14.894 3.61889 15.0347 3.7488C15.1753 3.87872 15.2544 4.05493 15.2544 4.23866C15.2544 4.42239 15.1753 4.5986 15.0347 4.72851C14.894 4.85843 14.7033 4.93142 14.5043 4.93142Z" fill="#303030"/>
</svg>